<?xml version="1.0" encoding="UTF-8"?>
<svg width="657px" height="80px" viewBox="0 0 657 80" version="1.1" xmlns="http://www.w3.org/2000/svg" xmlns:xlink="http://www.w3.org/1999/xlink">
    <!-- Generator: Sketch 55.2 (78181) - https://sketchapp.com -->
    <title>Tip</title>
    <desc>Created with Sketch.</desc>
    <g id="Login" stroke="none" stroke-width="1" fill="none" fill-rule="evenodd">
        <g id="Lobby" transform="translate(-67.000000, -840.000000)">
            <g id="Tip" transform="translate(67.000000, 840.000000)">
                <rect id="Rectangle" fill="#F4F0A4" x="40" y="20" width="617" height="43" rx="8"></rect>
                <circle id="Oval" fill="#F4F0A4" cx="40" cy="40" r="40"></circle>
                <g id="icons8-light_on" transform="translate(10.000000, 3.000000)" fill-rule="nonzero">
                    <g id="Group" transform="translate(0.000000, 6.000000)">
                        <ellipse id="Oval" fill="#F4F0A4" cx="30" cy="32.74375" rx="29.4782609" ry="29.0625"></ellipse>
                        <g transform="translate(12.391304, 0.000000)">
                            <path d="M23.6086957,13.3041667 L23.6086957,14.3375 L11.4130435,14.3375 L11.4130435,13.4979167 C11.4130435,16.85625 9.97826087,20.0854167 7.43478261,22.3458333 C4.04347826,25.3166667 2.02173913,29.7729167 2.41304348,34.68125 C3,42.04375 9.13043478,48.05 16.6304348,48.5020833 C25.5,49.0833333 32.8043478,42.1083333 32.8043478,33.51875 C32.8043478,29.0625 30.8478261,25.1229167 27.7173913,22.3458333 C25.173913,20.0208333 23.6086957,16.7916667 23.6086957,13.3041667 Z" id="Path" fill="#FFFFFF"></path>
                            <path d="M17.6086957,50.4395833 C17.6086957,50.4395833 17.6086957,50.4395833 17.6086957,50.4395833 C17.2173913,50.4395833 16.8913043,50.4395833 16.5,50.375 C8.02173913,49.8583333 1.10869565,43.1416667 0.456521739,34.7458333 C0.0652173913,29.45 2.15217391,24.3479167 6.13043478,20.7958333 C8.2173913,18.9229167 9.39130435,16.275 9.39130435,13.36875 C9.39130435,12.2708333 10.2391304,11.43125 11.3478261,11.43125 C12,11.43125 12.5869565,11.7541667 12.9782609,12.2708333 L21.8478261,12.2708333 C22.173913,11.6895833 22.826087,11.2375 23.5434783,11.2375 C24.6521739,11.2375 25.5,12.0770833 25.5,13.175 C25.5,16.0166667 26.8043478,18.79375 29.0217391,20.7958333 C32.673913,24.025 34.7608696,28.6104167 34.7608696,33.3895833 C34.7608696,37.9104167 33,42.1729167 29.7391304,45.4020833 C26.4782609,48.6958333 22.173913,50.4395833 17.6086957,50.4395833 Z M13.1086957,16.275 C12.5217391,19.18125 11.0217391,21.8291667 8.80434783,23.83125 C5.67391304,26.54375 4.10869565,30.4833333 4.43478261,34.6166667 C4.95652174,41.075 10.2391304,46.2416667 16.7608696,46.6291667 C20.673913,46.8875 24.326087,45.4666667 27,42.81875 C29.4782609,40.3645833 30.9130435,37.0708333 30.9130435,33.5833333 C30.9130435,29.9020833 29.2826087,26.35 26.4782609,23.83125 C24.1956522,21.8291667 22.6304348,19.1166667 21.9782609,16.275 L13.1086957,16.275 L13.1086957,16.275 Z" id="Shape" fill="#454B54"></path>
                            <g transform="translate(10.434783, 12.916667)" fill="#F2EDAA" id="Path">
                                <path d="M0.97826087,0.58125 C0.97826087,0.839583333 0.97826087,1.1625 0.913043478,1.42083333 L0.97826087,1.42083333 L0.97826087,0.58125 Z"></path>
                                <path d="M11.3478261,1.42083333 L11.3478261,1.42083333 C11.3478261,1.09791667 11.3478261,0.775 11.3478261,0.3875 L11.3478261,1.42083333 Z"></path>
                            </g>
                            <path d="M23.6086957,14.3375 L11.4130435,14.3375 L11.4130435,8.33125 C11.4130435,5.0375 14.1521739,2.325 17.4782609,2.325 L17.4782609,2.325 C20.8043478,2.325 23.5434783,5.0375 23.5434783,8.33125 L23.5434783,14.3375 L23.6086957,14.3375 Z" id="Path" fill="#C7D7E2"></path>
                            <path d="M23.6086957,16.275 L11.4130435,16.275 C10.3043478,16.275 9.45652174,15.4354167 9.45652174,14.3375 L9.45652174,8.33125 C9.45652174,3.93958333 13.0434783,0.3875 17.4782609,0.3875 C21.9130435,0.3875 25.5652174,3.93958333 25.5652174,8.33125 L25.5652174,14.3375 C25.5652174,15.3708333 24.6521739,16.275 23.6086957,16.275 Z M13.3695652,12.4 L21.6521739,12.4 L21.6521739,8.33125 C21.6521739,6.07083333 19.826087,4.2625 17.5434783,4.2625 C15.2608696,4.2625 13.3695652,6.07083333 13.3695652,8.33125 L13.3695652,12.4 L13.3695652,12.4 Z" id="Shape" fill="#454B54"></path>
                        </g>
                    </g>
                    <g id="Group" transform="translate(1.000000, 37.000000)" fill="#454B54">
                        <path d="M29.5,31.8040816 C28.3855556,31.8040816 27.5333333,30.955102 27.5333333,29.844898 L27.5333333,26.8408163 C27.5333333,25.7306122 28.3855556,24.8816327 29.5,24.8816327 C30.6144444,24.8816327 31.4666667,25.7306122 31.4666667,26.8408163 L31.4666667,29.844898 C31.4666667,30.955102 30.6144444,31.8040816 29.5,31.8040816 Z" id="Path"></path>
                        <path d="M48.97,23.8367347 C48.4455556,23.8367347 47.9866667,23.6408163 47.5933333,23.2489796 L45.43,21.0938776 C44.6433333,20.3102041 44.6433333,19.0693878 45.43,18.3510204 C46.2166667,17.5673469 47.4622222,17.5673469 48.1833333,18.3510204 L50.3466667,20.5061224 C51.1333333,21.2897959 51.1333333,22.5306122 50.3466667,23.2489796 C49.9533333,23.6408163 49.4944444,23.8367347 48.97,23.8367347 Z" id="Path"></path>
                        <path d="M57.0333333,4.50612245 L53.9522222,4.50612245 C52.8377778,4.50612245 51.9855556,3.65714286 51.9855556,2.54693878 C51.9855556,1.43673469 52.8377778,0.587755102 53.9522222,0.587755102 L57.0333333,0.587755102 C58.1477778,0.587755102 59,1.43673469 59,2.54693878 C59,3.65714286 58.1477778,4.50612245 57.0333333,4.50612245 Z" id="Path"></path>
                        <path d="M5.04777778,4.50612245 L1.96666667,4.50612245 C0.852222222,4.50612245 0,3.65714286 0,2.54693878 C0,1.43673469 0.852222222,0.587755102 1.96666667,0.587755102 L5.04777778,0.587755102 C6.16222222,0.587755102 7.01444444,1.43673469 7.01444444,2.54693878 C7.01444444,3.65714286 6.09666667,4.50612245 5.04777778,4.50612245 Z" id="Path"></path>
                        <path d="M10.03,23.8367347 C9.50555556,23.8367347 9.04666667,23.6408163 8.65333333,23.2489796 C7.86666667,22.4653061 7.86666667,21.2244898 8.65333333,20.5061224 L10.8166667,18.3510204 C11.6033333,17.5673469 12.8488889,17.5673469 13.57,18.3510204 C14.3566667,19.1346939 14.3566667,20.3755102 13.57,21.0938776 L11.4066667,23.2489796 C11.0133333,23.6408163 10.5544444,23.8367347 10.03,23.8367347 Z" id="Path"></path>
                    </g>
                    <path d="M30,10 C28.8666667,10 28,9.1503268 28,8.03921569 L28,1.96078431 C28,0.849673203 28.8666667,0 30,0 C31.1333333,0 32,0.849673203 32,1.96078431 L32,8.03921569 C32,9.08496732 31.1333333,10 30,10 Z" id="Path" fill="#454B54"></path>
                </g>
            </g>
        </g>
    </g>
</svg>