<?xml version="1.0" encoding="UTF-8"?>
<svg width="442px" height="442px" viewBox="0 0 442 442" version="1.1" xmlns="http://www.w3.org/2000/svg" xmlns:xlink="http://www.w3.org/1999/xlink">
    <!-- Generator: Sketch 55.2 (78181) - https://sketchapp.com -->
    <title>Login Form</title>
    <desc>Created with Sketch.</desc>
    <g id="Login" stroke="none" stroke-width="1" fill="none" fill-rule="evenodd">
        <g id="#1-Login" transform="translate(-164.000000, -222.000000)">
            <g id="Login-Form" transform="translate(164.000000, 222.000000)">
                <rect id="Rectangle" stroke="#979797" fill="#ECF0F1" x="0.5" y="0.5" width="441" height="441" rx="8"></rect>
                <rect id="Rectangle" stroke="#979797" fill="#16A085" x="0.5" y="0.5" width="441" height="96" rx="8"></rect>
                <text id="Log-in-#1" font-family="Montserrat-Regular, Montserrat" font-size="40" font-weight="normal" fill="#ECF0F1">
                    <tspan x="132.92" y="63">Log in #1</tspan>
                </text>
                <g id="User-Box" transform="translate(46.000000, 165.000000)">
                    <rect id="Rectangle" stroke="#000000" fill="#ECF0F1" x="0.5" y="0.5" width="349" height="49" rx="8"></rect>
                    <rect id="Rectangle" stroke="#979797" fill="#D8D8D8" x="0.5" y="0.5" width="55" height="49" rx="8"></rect>
                    <g id="icons8-user" transform="translate(10.000000, 7.000000)" fill="#000000" fill-rule="nonzero">
                        <path d="M18.5,0 C13.9589921,0 10.2777778,3.68121428 10.2777778,8.22222222 C10.2777778,12.7632302 13.9589921,16.4444444 18.5,16.4444444 C23.0410079,16.4444444 26.7222222,12.7632302 26.7222222,8.22222222 C26.7222222,3.68121428 23.0410079,0 18.5,0 Z M18.5,22.6111111 C12.3251111,22.6111111 0,25.7108889 0,31.8611111 L0,34.9444444 C0,36.0791111 0.920888889,37 2.05555556,37 L34.9444444,37 C36.0791111,37 37,36.0791111 37,34.9444444 L37,31.8611111 C37,25.7108889 24.6748889,22.6111111 18.5,22.6111111 Z" id="Shape"></path>
                    </g>
                </g>
                <g id="Password-Box" transform="translate(46.000000, 240.000000)">
                    <rect id="Rectangle-Copy" stroke="#000000" fill="#ECF0F1" x="0.5" y="0.5" width="349" height="49" rx="8"></rect>
                    <rect id="Rectangle-Copy-2" stroke="#979797" fill="#D8D8D8" x="0.5" y="0.5" width="55" height="49" rx="8"></rect>
                    <path d="M28,7 C22.1833334,7 17.5,11.7151928 17.5,17.5714286 L17.5,19.3333333 C15.575,19.3333333 14,20.9190476 14,22.8571429 L14,40.4761905 C14,42.4142857 15.575,44 17.5,44 L38.5,44 C40.425,44 42,42.4142857 42,40.4761905 L42,22.8571429 C42,20.9190476 40.425,19.3333333 38.5,19.3333333 L38.5,17.5714286 C38.5,11.7151928 33.8166675,7 28,7 Z M28,10.5238095 C31.9833325,10.5238095 35,13.5609977 35,17.5714286 L35,19.3333333 L21,19.3333333 L21,17.5714286 C21,13.5609977 24.0166666,10.5238095 28,10.5238095 Z M28,28.1428571 C29.925,28.1428571 31.5,29.7285714 31.5,31.6666667 C31.5,33.6047619 29.925,35.1904762 28,35.1904762 C26.075,35.1904762 24.5,33.6047619 24.5,31.6666667 C24.5,29.7285714 26.075,28.1428571 28,28.1428571 Z" id="Shape" fill="#000000" fill-rule="nonzero"></path>
                </g>
            </g>
        </g>
    </g>
</svg>